<svg xmlns="http://www.w3.org/2000/svg" xmlns:xlink="http://www.w3.org/1999/xlink"><symbol id="sprite">
  <symbol viewBox="0 0 42 27" id="icon-breadcrumbs">
    <path fill-rule="evenodd" d="M12.32 11.32h1v4h-1v-4Zm-1.83 2L.6 3.42C-.2 2.63-.2 1.4.6.6 1.4-.2 2.63-.2 3.42.6l11.32 11.32c.79.79.79 2.03 0 2.83L3.42 26.05c-.79.8-2.03.8-2.83 0-.79-.8-.79-2.04 0-2.83l9.9-9.9Z"/>
    <path fill-rule="evenodd" d="M25.32 11.32h1v4h-1v-4Zm-1.83 2-9.9-9.9c-.79-.79-.79-2.03 0-2.83.8-.79 2.04-.79 2.83 0l11.32 11.32c.79.79.79 2.03 0 2.83L16.42 26.05c-.79.8-2.03.8-2.83 0-.79-.8-.79-2.04 0-2.83l9.9-9.9Z"/>
    <path fill-rule="evenodd" d="M38.32 11.32h1v4h-1v-4Zm-1.83 2-9.9-9.9c-.79-.79-.79-2.03 0-2.83.8-.79 2.04-.79 2.83 0l11.32 11.32c.79.79.79 2.03 0 2.83L29.42 26.05c-.79.8-2.03.8-2.83 0-.79-.8-.79-2.04 0-2.83l9.9-9.9Z"/>
  </symbol>
  <symbol viewBox="0 0 90 90" id="icon-factory">
    <path fill="#fff" fill-opacity="0" d="M0 0h90v90H0z"/>
    <path fill="none" d="M0 0h90v90H0z"/>
    <path fill="#FFCD6C" d="M15 67.5V75h15v-7.5H15Zm0-15V60h37.5v-7.5H15Zm22.5 15V75h15v-7.5h-15Zm22.5-15V60h15v-7.5H60Zm0 15V75h15v-7.5H60Zm-52.5 15V30l18.75 15V30L45 45V30l18.75 15L67.5 7.5h11.25L82.5 45v37.5h-75Z"/>
  </symbol>
  <symbol viewBox="0 0 90 90" id="icon-innovation">
    <path fill="#fff" fill-opacity="0" d="M0 0h90v90H0z"/>
    <path fill="none" d="M0 0h90v90H0z"/>
    <g fill="#FFCD6C">
      <path d="M59.15 24.18c-.77 0-1.52-.4-1.94-1.1A14.21 14.21 0 0 0 45 16.14a2.25 2.25 0 0 1 0-4.5 18.58 18.58 0 0 1 16.08 9.14 2.25 2.25 0 0 1-1.93 3.4ZM45 87.36c-7.8 0-14.15-6.35-14.15-14.15 0-1.24 1-2.25 2.25-2.25h9.52a2.25 2.25 0 0 1 0 4.5h-7.01a9.67 9.67 0 0 0 19.04-2.25 2.25 2.25 0 1 1 4.5 0c0 7.8-6.35 14.15-14.15 14.15Z"/>
      <path d="M50.22 75.46h-.75a2.25 2.25 0 1 1 0-4.5h.75a2.25 2.25 0 0 1 0 4.5ZM56.9 66.73c-1.24 0-2.25-1.01-2.25-2.25 0-6.56 2.72-13.69 6.76-17.73a23.06 23.06 0 0 0 6.8-16.4c0-6.2-2.42-12.03-6.8-16.42A23.06 23.06 0 0 0 45 7.13c-6.2 0-12.03 2.42-16.4 6.8a23.06 23.06 0 0 0-6.8 16.41c0 6.2 2.4 12.03 6.8 16.41 3.57 3.58 6.11 9.59 6.64 15.48h12.61L52.3 34.5l-2.55 1.16c-.76.34-1.64.24-2.3-.26L45 33.55l-2.44 1.86c-.66.5-1.54.6-2.3.26l-2.54-1.16 3.5 21.92a2.25 2.25 0 0 1-4.44.7L32.6 31.09a2.25 2.25 0 0 1 3.15-2.4l5.14 2.34 2.74-2.08c.8-.62 1.92-.62 2.72 0l2.74 2.08 5.14-2.34a2.25 2.25 0 0 1 3.15 2.4L52 64.83a2.25 2.25 0 0 1-2.22 1.9H33.1c-1.25 0-2.25-1.01-2.25-2.25 0-5.28-2.29-11.4-5.44-14.55a27.52 27.52 0 0 1-8.12-19.59c0-7.4 2.89-14.36 8.12-19.59A27.52 27.52 0 0 1 45 2.64c7.4 0 14.36 2.88 19.6 8.11a27.52 27.52 0 0 1 8.1 19.6c0 7.4-2.87 14.35-8.1 19.58-3.16 3.15-5.45 9.27-5.45 14.55 0 1.24-1 2.25-2.25 2.25Z"/>
    </g>
  </symbol>
  <symbol viewBox="0 0 90 90" id="icon-money-bag">
    <path fill="#fff" fill-opacity="0" d="M0 0h90v90H0z"/>
    <path fill="none" d="M0 0h90v90H0z"/>
    <path fill="#FFCD6C" fill-rule="evenodd" d="M44.8 4.69h.4c3.36 0 6.17 0 8.4.3 2.36.31 4.48 1.01 6.2 2.72 1.7 1.7 2.4 3.83 2.71 6.19.22 1.64.28 3.6.3 5.88 2.43.08 4.6.22 6.52.48 4.4.6 7.96 1.84 10.77 4.64 2.8 2.81 4.05 6.37 4.64 10.77.57 4.27.57 9.73.57 16.62v.42c0 6.9 0 12.35-.57 16.62-.6 4.4-1.84 7.96-4.64 10.77-2.81 2.8-6.37 4.05-10.77 4.64-4.27.57-9.73.57-16.62.57H37.3c-6.9 0-12.35 0-16.62-.57-4.4-.6-7.96-1.84-10.77-4.64-2.8-2.81-4.05-6.37-4.64-10.77-.57-4.27-.57-9.73-.57-16.62v-.42c0-6.9 0-12.35.57-16.62.6-4.4 1.84-7.96 4.64-10.77 2.81-2.8 6.37-4.05 10.77-4.64 1.92-.26 4.1-.4 6.52-.48.02-2.27.08-4.24.3-5.88.31-2.36 1.01-4.48 2.72-6.2C31.9 6 34.04 5.3 36.4 5c2.23-.3 5.04-.3 8.4-.3Zm-11.98 15h24.36a42.34 42.34 0 0 0-.24-5.04c-.23-1.74-.64-2.48-1.13-2.96-.48-.5-1.23-.9-2.96-1.13-1.8-.24-4.23-.25-7.85-.25-3.62 0-6.04 0-7.85.25-1.73.23-2.48.64-2.96 1.13-.5.48-.9 1.22-1.13 2.96a42.1 42.1 0 0 0-.24 5.04Zm-11.4 6.15c-3.78.5-5.95 1.46-7.54 3.04-1.59 1.59-2.54 3.76-3.04 7.54-.52 3.85-.53 8.93-.53 16.08 0 7.15 0 12.23.53 16.08.5 3.78 1.45 5.95 3.04 7.54 1.59 1.58 3.76 2.54 7.54 3.04 3.85.52 8.93.53 16.08.53h15c7.15 0 12.23 0 16.08-.53 3.78-.5 5.95-1.46 7.54-3.04 1.59-1.59 2.54-3.76 3.04-7.54.52-3.85.53-8.93.53-16.08 0-7.15 0-12.23-.53-16.08-.5-3.78-1.45-5.95-3.04-7.54-1.59-1.58-3.76-2.54-7.54-3.04-3.85-.52-8.93-.53-16.08-.53h-15c-7.15 0-12.23 0-16.08.53ZM45 34.69a2.81 2.81 0 0 1 2.81 2.81v.04c4.09 1.03 7.5 4.25 7.5 8.71a2.81 2.81 0 1 1-5.62 0c0-1.44-1.6-3.44-4.69-3.44-3.1 0-4.69 2-4.69 3.44s1.6 3.44 4.69 3.44c5.2 0 10.31 3.6 10.31 9.06 0 4.46-3.41 7.68-7.5 8.71v.04a2.81 2.81 0 1 1-5.62 0v-.04c-4.09-1.03-7.5-4.25-7.5-8.71a2.81 2.81 0 1 1 5.62 0c0 1.44 1.6 3.44 4.69 3.44 3.1 0 4.69-2 4.69-3.44s-1.6-3.44-4.69-3.44c-5.2 0-10.31-3.6-10.31-9.06 0-4.46 3.41-7.68 7.5-8.71v-.04A2.81 2.81 0 0 1 45 34.69Z"/>
    <path stroke="#FFCD6C" stroke-width="2.67" d="M45.2 4.69c3.36 0 6.17 0 8.4.3 2.36.31 4.48 1.01 6.2 2.72 1.7 1.7 2.4 3.83 2.71 6.19.22 1.64.28 3.6.3 5.88 2.43.08 4.6.22 6.52.48 4.4.6 7.96 1.84 10.77 4.64 2.8 2.81 4.05 6.37 4.64 10.77.57 4.27.57 9.73.57 16.62v.42c0 6.9 0 12.35-.57 16.62-.6 4.4-1.84 7.96-4.64 10.77-2.81 2.8-6.37 4.05-10.77 4.64-4.27.57-9.73.57-16.62.57H37.3c-6.9 0-12.35 0-16.62-.57-4.4-.6-7.96-1.84-10.77-4.64-2.8-2.81-4.05-6.37-4.64-10.77-.57-4.27-.57-9.73-.57-16.62v-.42c0-6.9 0-12.35.57-16.62.6-4.4 1.84-7.96 4.64-10.77 2.81-2.8 6.37-4.05 10.77-4.64 1.92-.26 4.1-.4 6.52-.48.02-2.27.08-4.24.3-5.88.31-2.36 1.01-4.48 2.72-6.2C31.9 6 34.04 5.3 36.4 5c2.23-.3 5.04-.3 8.4-.3h.4Zm-7.91 15h19.89a42.34 42.34 0 0 0-.24-5.04c-.23-1.74-.64-2.48-1.13-2.96-.48-.5-1.23-.9-2.96-1.13-1.8-.24-4.23-.25-7.85-.25-3.62 0-6.04 0-7.85.25-1.73.23-2.48.64-2.96 1.13-.5.48-.9 1.22-1.13 2.96a42.1 42.1 0 0 0-.24 5.04h4.47Zm-23.4 9.2c-1.6 1.58-2.55 3.75-3.05 7.53-.52 3.85-.53 8.93-.53 16.08 0 7.15 0 12.23.53 16.08.5 3.78 1.45 5.95 3.04 7.54 1.59 1.58 3.76 2.54 7.54 3.04 3.85.52 8.93.53 16.08.53h15c7.15 0 12.23 0 16.08-.53 3.78-.5 5.95-1.46 7.54-3.04 1.59-1.59 2.54-3.76 3.04-7.54.52-3.85.53-8.93.53-16.08 0-7.15 0-12.23-.53-16.08-.5-3.78-1.45-5.95-3.04-7.54-1.59-1.58-3.76-2.54-7.54-3.04-3.85-.52-8.93-.53-16.08-.53h-15c-7.15 0-12.23 0-16.08.53-3.78.5-5.95 1.46-7.54 3.04ZM47.8 37.5v.04c4.09 1.03 7.5 4.25 7.5 8.71a2.81 2.81 0 1 1-5.62 0c0-1.44-1.6-3.44-4.69-3.44-3.1 0-4.69 2-4.69 3.44s1.6 3.44 4.69 3.44c5.2 0 10.31 3.6 10.31 9.06 0 4.46-3.41 7.68-7.5 8.71v.04a2.81 2.81 0 1 1-5.62 0v-.04c-4.09-1.03-7.5-4.25-7.5-8.71a2.81 2.81 0 1 1 5.62 0c0 1.44 1.6 3.44 4.69 3.44 3.1 0 4.69-2 4.69-3.44s-1.6-3.44-4.69-3.44c-5.2 0-10.31-3.6-10.31-9.06 0-4.46 3.41-7.68 7.5-8.71v-.04a2.81 2.81 0 1 1 5.62 0Z"/>
  </symbol>
  <symbol viewBox="0 0 90 90" id="icon-crown-star">
    <path fill="#fff" fill-opacity="0" d="M0 0h90v90H0z"/>
    <path fill="none" d="M0 0h90v90H0z"/>
    <g stroke="#FFCD6C" stroke-width="6">
      <path d="M45 43.13c1.07 0 1.78 1.27 3.2 3.83l.37.66c.4.73.6 1.09.92 1.33.32.24.71.33 1.5.5l.72.17c2.76.62 4.15.94 4.48 2 .32 1.05-.62 2.16-2.5 4.36l-.5.57c-.53.63-.8.94-.92 1.33-.12.39-.08.8 0 1.64l.08.77c.28 2.94.42 4.41-.44 5.07-.86.65-2.15.05-4.74-1.14l-.68-.3c-.73-.35-1.1-.52-1.49-.52-.4 0-.76.17-1.5.51l-.66.31c-2.6 1.2-3.9 1.79-4.75 1.14-.86-.66-.72-2.13-.44-5.07l.08-.77c.08-.83.12-1.25 0-1.64-.12-.39-.4-.7-.93-1.33l-.49-.57c-1.88-2.2-2.82-3.3-2.5-4.36.33-1.06 1.72-1.38 4.48-2l.72-.16c.79-.18 1.18-.27 1.5-.51.31-.24.51-.6.92-1.33l.37-.66c1.42-2.56 2.13-3.84 3.2-3.84Z"/>
      <path stroke-linecap="round" d="M81.9 41.72c.67-7.17 1-10.75-.22-12.24a3.72 3.72 0 0 0-2.53-1.38c-1.79-.15-4.03 2.4-8.5 7.5-2.32 2.64-3.48 3.96-4.78 4.16-.71.11-1.44 0-2.1-.34-1.2-.6-2-2.23-3.58-5.49l-8.4-17.19c-3-6.16-4.5-9.24-6.79-9.24s-3.8 3.08-6.8 9.24l-8.39 17.2c-1.59 3.25-2.38 4.88-3.58 5.48-.66.34-1.39.45-2.1.34-1.3-.2-2.46-1.52-4.77-4.16-4.48-5.1-6.72-7.65-8.5-7.5-.97.09-1.88.58-2.54 1.38-1.23 1.49-.89 5.07-.21 12.24l.86 9.14c1.41 15.04 2.12 22.57 6.56 27.1C19.96 82.5 26.6 82.5 39.9 82.5h10.2c13.3 0 19.94 0 24.37-4.54 3.43-3.5 4.63-8.8 5.66-17.96"/>
    </g>
  </symbol>
  <symbol viewBox="0 0 90 90" id="icon-briefcase">
    <path fill="#fff" fill-opacity="0" d="M0 0h90v90H0z"/>
    <path fill="none" d="M0 0h90v90H0z"/>
    <path stroke="#FFCD6C" stroke-linejoin="round" stroke-width="5.33" d="m11.35 37.58 13.72 10.98c1.83 1.46 2.74 2.19 3.76 2.7.9.47 1.86.8 2.85 1.01 1.12.23 2.3.23 4.63.23H53.7c2.34 0 3.5 0 4.63-.23.99-.2 1.95-.54 2.85-1 1.02-.52 1.93-1.25 3.76-2.71l13.72-10.98m-67.4 6.67v16.5c0 6.3 0 9.45 1.23 11.86a11.24 11.24 0 0 0 4.91 4.91c2.4 1.23 5.56 1.23 11.86 1.23h31.5c6.3 0 9.45 0 11.86-1.23a11.24 11.24 0 0 0 4.91-4.91c1.23-2.4 1.23-5.56 1.23-11.86v-16.5c0-2.76 0-4.91-.1-6.67-.14-2.25-.44-3.83-1.13-5.19a11.24 11.24 0 0 0-4.91-4.91c-2.4-1.23-5.56-1.23-11.86-1.23h-31.5c-6.3 0-9.45 0-11.86 1.23a11.24 11.24 0 0 0-4.91 4.91c-.7 1.36-1 2.94-1.13 5.2-.1 1.75-.1 3.9-.1 6.66Zm18.75-18V22.5c0-6.21 5.04-11.25 11.25-11.25h7.5C54.96 11.25 60 16.29 60 22.5v3.75"/>
  </symbol>
  <symbol viewBox="0 0 90 90" id="icon-earth">
    <path fill="#fff" fill-opacity="0" d="M0 0h90v90H0z"/>
    <path fill="none" d="M0 0h90v90H0z"/>
    <path fill="#FFCD6C" d="M81.42 18.58A44.94 44.94 0 0 0 45 0 44.94 44.94 0 0 0 8.58 18.58 44.74 44.74 0 0 0 0 45a44.75 44.75 0 0 0 10.35 28.72A44.94 44.94 0 0 0 45 90a44.9 44.9 0 0 0 36.48-18.65A44.74 44.74 0 0 0 90 45c0-9.87-3.18-19-8.58-26.42Zm1.5 25H67.8a67.08 67.08 0 0 0-2.2-16.03 49.43 49.43 0 0 0 10.16-4.75 37.7 37.7 0 0 1 7.14 20.79ZM46.4 7.38c6.57.9 12.39 8.1 15.7 18.33A62.37 62.37 0 0 1 46.4 28V7.37Zm-2.8 0V28a62.36 62.36 0 0 1-15.7-2.3c3.3-10.23 9.12-17.42 15.7-18.33Zm0 23.44v12.78H25c.1-5.41.86-10.57 2.1-15.21a64.57 64.57 0 0 0 16.5 2.43Zm0 15.6v12.77c-5.85.14-11.4 1-16.48 2.48-1.26-4.66-2-9.83-2.12-15.26h18.6Zm0 15.58v20.63c-6.56-.9-12.37-8.07-15.69-18.27A62.18 62.18 0 0 1 43.6 62Zm2.8 20.63V61.98c5.58.1 10.88.9 15.71 2.27-3.31 10.25-9.13 17.46-15.7 18.37Zm0-23.45V46.4H65a64.2 64.2 0 0 1-2.1 15.15 64.5 64.5 0 0 0-16.5-2.38Zm0-15.58V30.8c5.85-.12 11.41-.97 16.5-2.43 1.24 4.64 1.98 9.8 2.1 15.2H46.4ZM74.05 20.6a46.85 46.85 0 0 1-9.24 4.27c-2.32-7.2-5.84-13.01-10.09-16.56a37.88 37.88 0 0 1 19.33 12.3ZM35.27 8.3c-4.24 3.56-7.77 9.37-10.09 16.56a46.86 46.86 0 0 1-9.23-4.26A37.9 37.9 0 0 1 35.27 8.3ZM14.23 22.8a49.61 49.61 0 0 0 10.15 4.75 67.08 67.08 0 0 0-2.2 16.04H7.09a37.71 37.71 0 0 1 7.15-20.8ZM7.1 46.4h15.1a67 67 0 0 0 2.21 16.1 49.79 49.79 0 0 0-10.13 4.75A37.67 37.67 0 0 1 7.1 46.4Zm8.93 23.07c2.79-1.7 5.88-3.13 9.19-4.27 2.32 7.17 5.84 12.95 10.08 16.5a37.88 37.88 0 0 1-19.27-12.23ZM54.7 81.69c4.26-3.56 7.8-9.39 10.12-16.62a46.68 46.68 0 0 1 9.27 4.27A38 38 0 0 1 54.7 81.7Zm21.12-14.56a49.38 49.38 0 0 0-10.2-4.75A67.21 67.21 0 0 0 67.8 46.4h15.1a37.7 37.7 0 0 1-7.08 20.73Z"/>
  </symbol>
  <symbol viewBox="0 0 275 275" id="icon-sports-trophy">
    <path fill="#fff" fill-opacity="0" d="M0 0h275v275H0z"/>
    <path fill="none" d="M0 0h275v275H0z"/>
    <g fill="#FFCD6C">
      <path d="M25.86 172.31s2.5-10.3-6.1-19.2a29.4 29.4 0 0 0-19.38-8.89s-2.62 12.13 5.78 20.8c8.39 8.65 19.7 7.3 19.7 7.3ZM44.76 170.35s9.99-5.49 11.76-17.41c1.77-11.93-7.4-20.25-7.4-20.25s-8.76 6.28-10.57 18.51c-1.83 12.24 6.21 19.15 6.21 19.15ZM59.98 200.3s9.18-6.74 9.4-18.8c.18-12.05-10-19.1-10-19.1s-7.85 7.36-8.05 19.75a21.75 21.75 0 0 0 8.65 18.16ZM82.6 217.54s8.5-7.58 7.58-19.6c-.94-12.01-11.74-18.1-11.74-18.1s-7.13 8.08-6.18 20.43a21.76 21.76 0 0 0 10.34 17.27ZM110.97 232.39s5.97-9.72 1.62-20.95c-4.35-11.24-16.45-13.95-16.45-13.95s-4.5 9.78-.04 21.32c4.49 11.54 14.87 13.58 14.87 13.58ZM29.92 145.92s7.78-7.18 5.56-19.35c-2.22-12.16-11.18-18.15-11.18-18.15s-8.9 8.63-6.73 20.49c2.18 11.86 12.35 17.01 12.35 17.01ZM36.32 195.6s-.65-10.57-11.49-16.54c-10.85-5.94-21.13-2.8-21.13-2.8s1.07 12.36 11.62 18.17c10.57 5.81 21 1.17 21 1.17ZM54.65 216.1s-2.99-10.18-14.88-13.58c-11.9-3.4-21.2 1.98-21.2 1.98s3.78 11.8 15.37 15.11c11.6 3.31 20.71-3.52 20.71-3.52ZM75.1 230.65s-5.93-8.8-18.3-8.42a29.29 29.29 0 0 0-19.63 8.29s7.2 10.1 19.22 9.76c12.07-.36 18.7-9.63 18.7-9.63ZM83.84 236.58a29.41 29.41 0 0 0-18.5 10.6s8.35 9.16 20.26 7.37c11.93-1.79 17.4-11.8 17.4-11.8s-6.94-8.01-19.16-6.17Z"/>
      <path d="m33.97 151.95-5.89-.2c-.03.64-1.18 64.6 95.46 92.95l1.65-5.66c-92-27.01-91.3-84.65-91.22-87.1ZM249.14 172.31s11.32 1.36 19.7-7.3c8.39-8.66 5.78-20.79 5.78-20.79s-10.77.01-19.39 8.9c-8.58 8.89-6.09 19.2-6.09 19.2ZM218.48 152.94c1.78 11.93 11.76 17.4 11.76 17.4s8.03-6.92 6.22-19.14a29.33 29.33 0 0 0-10.56-18.5s-9.2 8.3-7.42 20.24ZM205.65 181.5c.2 12.06 9.4 18.8 9.4 18.8s8.86-5.8 8.66-18.16c-.2-12.38-8.05-19.74-8.05-19.74s-10.2 7.05-10.01 19.1ZM184.84 197.93c-.91 12.02 7.59 19.6 7.59 19.6s9.38-4.95 10.33-17.28c.95-12.32-6.19-20.4-6.19-20.4s-10.8 6.07-11.73 18.08ZM162.4 211.43c-4.34 11.23 1.63 20.95 1.63 20.95s10.4-2.04 14.86-13.58a29.42 29.42 0 0 0-.05-21.32s-12.07 2.7-16.43 13.95ZM257.43 128.92c2.18-11.87-6.73-20.49-6.73-20.49s-8.96 6-11.18 18.15c-2.22 12.16 5.55 19.35 5.55 19.35s10.2-5.16 12.36-17ZM250.17 179.07c-10.84 5.96-11.48 16.54-11.48 16.54s10.42 4.64 20.98-1.17c10.55-5.8 11.62-18.16 11.62-18.16s-10.26-3.16-21.12 2.8ZM235.24 202.52c-11.9 3.4-14.88 13.57-14.88 13.57s9.12 6.84 20.72 3.52c11.6-3.31 15.38-15.11 15.38-15.11s-9.32-5.38-21.22-1.98ZM218.2 222.22c-12.35-.37-18.28 8.42-18.28 8.42s6.6 9.27 18.7 9.62c12.03.35 19.21-9.77 19.21-9.77s-7.26-7.92-19.63-8.27ZM191.17 236.58c-12.23-1.84-19.15 6.18-19.15 6.18s5.48 10 17.4 11.8c11.92 1.78 20.26-7.38 20.26-7.38s-6.27-8.76-18.5-10.6Z"/>
      <path d="m246.94 151.75-5.88.19c.07 2.44.77 60.08-91.22 87.08l1.65 5.66c96.62-28.34 95.48-92.29 95.45-92.93ZM175.23 173.06h-8.08v-19.9c-14.73-4.07-16.99-29.74-17.26-33.52h4.96v-19.28c3.37-1.38 8.62-4.77 13.73-10.75l8.9 9.92 9.8-8.8-7.68-8.58c8.46 2.82 22.33 5.44 33.16-2.18 12.03-8.5 16.21-26.7 12.38-54.1l-.8-5.67-86.84.08-86.82-.07-.8 5.68c-3.83 27.4.34 45.6 12.39 54.1 10.81 7.6 24.69 5 33.15 2.17l-7.68 8.57 9.8 8.8 8.9-9.9c5.12 5.97 10.37 9.36 13.72 10.73v19.28h4.97c-.27 3.77-2.53 29.46-17.26 33.53v19.9h-8.1v9.6h75.45l.01-9.6Zm8.07-139.7 29.46.03c1.89 18.6-.7 30.94-7.6 35.8-7.21 5.12-19.14 1.67-25.12-.9 2.84-9.2 4.28-20.76 3.26-34.93ZM69.83 69.2c-6.88-4.87-9.47-17.21-7.59-35.81l29.46-.03c-1.02 14.17.42 25.73 3.26 34.92-5.97 2.58-17.91 6.03-25.13.92Z"/>
    </g>
  </symbol>
  <symbol viewBox="0 0 269 269" id="icon-board-games-with-roles">
    <path fill="#fff" fill-opacity="0" d="M0 0h269v269H0z"/>
    <path fill="none" d="M0 0h269v269H0z"/>
    <path fill="#FFCD6C" d="M87.29 109.09a48.07 48.07 0 0 0-.06 21.31 7.4 7.4 0 0 0 14.7-.36 5.4 5.4 0 0 1-.03-.59 7.4 7.4 0 0 0-.2-1.7 33.52 33.52 0 0 1 .63-17.83 5.59 5.59 0 1 1 10.66 3.35 22.37 22.37 0 0 0-.42 11.9c.26 1.1.42 2.23.48 3.36.05.3.08.6.08.92a18.59 18.59 0 0 1-18.57 18.57 18.6 18.6 0 0 1-18.38-15.97 59.16 59.16 0 0 1 .22-25.45 5.59 5.59 0 0 1 10.89 2.49Zm82.46 117.65a5.59 5.59 0 0 0-1.87 11.02c17.25 2.91 23.8 6.87 25.29 8.54-1 1.08-4.99 4.31-18.57 7.3-12.4 2.73-28.48 4.23-45.28 4.23-19.23 0-37.57-2-50.32-5.46-9.59-2.62-12.67-5.14-13.53-6.07 1.5-1.67 8.04-5.63 25.29-8.55a5.59 5.59 0 1 0-1.86-11.01c-23.11 3.9-34.83 10.5-34.83 19.58 0 7.3 7.2 12.8 22 16.82 13.66 3.73 33.07 5.86 53.25 5.86 19.05 0 37.01-1.83 50.6-5.17 16.59-4.07 24.65-9.8 24.65-17.5 0-9.1-11.72-15.68-34.82-19.59Zm-21.87 2.77v.93A18.58 18.58 0 0 1 129.32 249a18.58 18.58 0 0 1-18.56-18.56v-.93a18.58 18.58 0 0 1 18.56-18.56 18.58 18.58 0 0 1 18.56 18.56Zm-11.17 0a7.4 7.4 0 0 0-14.78 0v.93a7.4 7.4 0 0 0 14.78 0v-.93Zm16.72-97.38a22.32 22.32 0 0 1-13.63 9.7l-.05.02a38.18 38.18 0 0 0-23.84 17.22 38.16 38.16 0 0 0-4.64 29.02 18.6 18.6 0 0 0 22.33 13.78 18.43 18.43 0 0 0 11.52-8.32c2.6-4.22 3.4-9.2 2.26-14.03-.11-.46.02-.8.15-1.02.12-.2.39-.54.8-.64l.1-.03a59.24 59.24 0 0 0 36.53-26.22l.33-.48a59.23 59.23 0 0 0 7.27-44.53 5.58 5.58 0 1 0-10.89 2.5 48.12 48.12 0 0 1-5.62 35.73l-.3.43a48.14 48.14 0 0 1-29.99 21.72l-.1.03a12.44 12.44 0 0 0-7.65 5.64 12.44 12.44 0 0 0-1.5 9.45c.45 1.92.13 3.9-.9 5.59a7.4 7.4 0 0 1-13.47-2.18 27.07 27.07 0 0 1 3.29-20.6 27.08 27.08 0 0 1 16.92-12.2 33.43 33.43 0 0 0 20.84-15.12l.04-.05.27-.51a33.53 33.53 0 0 0 3.83-24.83l-.07-.28a35.1 35.1 0 0 0-.54-1.97 5.59 5.59 0 0 0-10.68 3.28c.14.45.26.9.37 1.33l.05.23a22.4 22.4 0 0 1-2.79 16.9l-.24.44Zm73.58-63.07c0 9.23-9.96 16.56-29.6 21.8-16.88 4.51-39.22 7-62.91 7-23.7 0-46.03-2.49-62.9-7-19.65-5.24-29.61-12.57-29.61-21.8 0-8.4 8.27-15.24 24.6-20.36l6.21-36.2C73.74 7.07 78.05.54 93.3.3c8.49-.12 18.46 1.53 27.25 2.99 5.7.94 11.06 1.83 13.96 1.83 3.5 0 9.33-1.02 15.5-2.1 14.93-2.6 31.85-5.54 40.64.66 3 2.12 4.93 5.17 5.56 8.83l6.22 36.2c16.32 5.11 24.6 11.95 24.6 20.35Zm-11.17 0c0-.96-2.72-5.03-15.23-9.2-17 5.02-40.95 7.89-66.11 7.89-15.72 0-31.18-1.12-44.72-3.24a5.59 5.59 0 0 1 1.72-11.04 284.2 284.2 0 0 0 43 3.1c21.26 0 41.49-2.09 56.93-5.82L185.2 14.4a2.17 2.17 0 0 0-.99-1.59c-5-3.53-21.42-.67-32.28 1.22-6.95 1.21-12.96 2.26-17.42 2.26-3.81 0-9.36-.92-15.78-1.98-8.06-1.33-17.16-2.84-24.52-2.84h-.75c-2.15.04-9.2.34-9.64 2.93l-6.8 39.61a5.59 5.59 0 0 1-4 4.44C56.53 63.07 53.16 68 53.16 69.06c0 1.12 3.62 6.29 21.31 11.02 15.97 4.26 37.28 6.6 60.03 6.6s44.06-2.34 60.02-6.6c17.7-4.73 21.32-9.9 21.32-11.02Z"/>
  </symbol>
  <symbol viewBox="0 0 274 274" id="icon-meditation">
    <path fill="#fff" fill-opacity="0" d="M0 0h274v274H0z"/>
    <path fill="none" d="M0 0h274v274H0z"/>
    <path fill="#FFCD6C" fill-rule="evenodd" d="M137 31.4a19.98 19.98 0 1 0 0 39.95 19.98 19.98 0 0 0 0-39.95ZM99.9 51.38a37.1 37.1 0 1 1 74.2 0 37.1 37.1 0 0 1-74.2 0Zm47.02 60.76a60.2 60.2 0 0 0-19.84 0c-28.63 4.82-50.02 29.95-50.02 59.33 0 6.45-3.6 12.4-9.39 15.32l-29.56 14.94a8.56 8.56 0 0 1-7.72-15.29l29.54-14.93.01-.04c0-37.73 27.42-70.01 64.3-76.22a77.3 77.3 0 0 1 25.52 0c36.88 6.21 64.3 38.49 64.3 76.22l.01.04 29.54 14.93a8.56 8.56 0 1 1-7.72 15.29l-29.56-14.94a17.15 17.15 0 0 1-9.4-15.32c0-29.38-21.38-54.51-50.01-59.33Zm-33.32 63.68a8.56 8.56 0 0 1 1.71 11.98l-11.95 15.93c-.3.42-.55.74-.8 1.06a31.38 31.38 0 0 1-17.52 11.11l-.09.02L68 220.16a18.18 18.18 0 0 0-13.77 17.63 4.8 4.8 0 0 0 4.8 4.81H76.8c7.04 0 9.88-.01 12.59-.33a48.5 48.5 0 0 0 18.72-6.24c2.35-1.37 4.63-3.06 10.26-7.28l2.08-1.56 22.83-17.12a8.56 8.56 0 0 1 10.28 13.7l-10.33 7.74 14.36 5.39c7.15 2.68 10.04 3.75 12.97 4.43 1.58.37 3.18.66 4.8.87 2.98.39 6.06.4 13.7.4h25.9a4.8 4.8 0 0 0 4.81-4.8c0-8.35-5.67-15.62-13.77-17.64l-17.04-4.26-1.29-.33a31.4 31.4 0 0 1-17.03-11.84l-.05-.07-11.9-15.86a8.56 8.56 0 1 1 13.7-10.27l11.9 15.86.59.78a14.27 14.27 0 0 0 8.32 5.14l16.96 4.23a35.3 35.3 0 0 1 26.74 34.25 21.93 21.93 0 0 1-21.94 21.94h-26.5c-6.86 0-11.1 0-15.31-.55a65.66 65.66 0 0 1-6.49-1.17c-4.14-.97-8.1-2.46-14.53-4.87l-25.16-9.43c-4.34 3.25-7.21 5.36-10.26 7.13a65.64 65.64 0 0 1-25.32 8.44c-3.83.45-7.72.45-14.04.45H59.04a21.93 21.93 0 0 1-21.93-21.94 35.3 35.3 0 0 1 26.74-34.25l16.95-4.23c.63-.16.8-.2.95-.25a14.28 14.28 0 0 0 7.97-5.67l11.89-15.86a8.56 8.56 0 0 1 11.99-1.71Z"/>
  </symbol>
  <symbol viewBox="0 0 251 251" id="icon-ozon">
    <path fill="#fff" fill-opacity="0" d="M-42-42h335v335H-42z"/>
    <path fill="#fff" fill-opacity="0" d="M0 0h251v251H0z"/>
    <path fill="none" d="M0 0h251v251H0z"/>
    <path fill="#2962FF" d="M52.22-.13h146.56a52.35 52.35 0 0 1 52.34 52.35v146.56a52.35 52.35 0 0 1-52.34 52.34H52.22A52.34 52.34 0 0 1-.12 198.78V52.22A52.34 52.34 0 0 1 52.22-.12Z"/>
    <path fill="#FFF" d="M108.05 140.06H90.09L113 109.73a1.53 1.53 0 0 0-1.22-2.44H78.63a5.31 5.31 0 0 0-5.3 5.3c0 2.9 2.39 5.3 5.3 5.3h14.9l-23 30.36a1.5 1.5 0 0 0 .27 2.13c.28.22.61.34.95.3h36.27a5.3 5.3 0 0 0 5.02-5.57 5.29 5.29 0 0 0-5-5.05Zm115.89-32.77a5.31 5.31 0 0 0-5.3 5.3v17.79l-28.65-22.73a1.52 1.52 0 0 0-2.47 1.2v36.54a5.3 5.3 0 0 0 10.6 0V127.6l28.64 22.76a1.54 1.54 0 0 0 2.5-1.2V112.6a5.31 5.31 0 0 0-5.32-5.3Zm-75.8 33.77c-12.12 0-21.17-6.38-21.17-12.1 0-5.71 9.08-12.1 21.18-12.1 12.13 0 21.17 6.39 21.17 12.1 0 5.72-9.02 12.1-21.17 12.1Zm0-34.8c-17.53 0-31.77 10.15-31.77 22.7 0 12.55 14.24 22.7 31.78 22.7s31.77-10.15 31.77-22.7c0-12.55-14.23-22.7-31.77-22.7ZM43.83 141.09a12.12 12.12 0 1 1-.02-24.23 12.12 12.12 0 0 1 .02 24.23Zm0-34.83a22.74 22.74 0 0 0-22.73 22.7 22.74 22.74 0 0 0 22.7 22.73A22.74 22.74 0 0 0 66.53 129a22.76 22.76 0 0 0-22.7-22.73Z"/>
  </symbol>
  <symbol viewBox="0 0 251 264" id="icon-yandex">
    <path fill="#fff" fill-opacity="0" d="M0 0h251v264H0z"/>
    <path fill="none" d="M0 0h251v264H0z"/>
    <path fill="#FFCD6C" d="M2 8h247v247H2z"/>
    <path stroke="#FFCD6C" stroke-width="4" d="M2 8h247v247H2z"/>
    <path fill="#071015" d="M73.9 71.22-18.11 198.1l24.4 29.33 68.33-95.33-6.98 52.06 38.35 13.94 46.71-78.47c-2.09 14.67-5.58 48.4 25.1 58.67 48.1 15.4 89.94-75.53 109.46-121.74l-27.89-15.4c-21.61 47.67-55.08 100.47-68.32 96.8-13.25-3.66-1.4-48.4 6.27-77v-.73l-42.53-15.4-50.9 87.27 6.98-47.67-36.95-13.2Z"/>
    <path stroke="#071015" stroke-linejoin="round" stroke-width="6.25" d="m-18.12 198.09 24.4 29.33 68.33-95.33-6.98 52.06 38.35 13.94 46.71-78.47c-2.09 14.67-5.58 48.4 25.1 58.67 48.1 15.4 89.94-75.53 109.46-121.74l-27.89-15.4c-21.61 47.67-55.08 100.47-68.32 96.8-13.25-3.66-1.4-48.4 6.27-77v-.73l-42.53-15.4-50.9 87.27 6.98-47.67-36.95-13.2-92.03 126.87Z"/>
  </symbol>
  <symbol viewBox="0 0 251 251" id="icon-wildberries">
    <path fill="#fff" fill-opacity="0" d="M0 0h251v251H0z"/>
    <path fill="none" d="M0 0h251v251H0z"/>
    <path fill="url(#b)" d="M0 0h251v251H0z"/>
    <path stroke="#FFF" stroke-linecap="round" stroke-linejoin="round" stroke-width="12" d="m28.76 82.82 23.03 84.86L76.47 82.8l28.75 85.32 23.13-85.3m85.95 80.05c-5.33 4.85-11.6 7.33-19.33 7.33h-38.78V80.8h35.95c7.42 0 13.7 2.47 18.81 7.11 5.23 4.74 7.74 10.62 7.74 17.64 0 7.84-3.14 13.81-9.2 18.25 7.94 4.12 12.75 11.55 12.75 20.83 0 7.32-2.61 13.4-7.94 18.25Z"/>
    <path stroke="#FFF" stroke-linecap="round" stroke-linejoin="round" stroke-width="9" d="M210.25 123.51h-51.41"/>
  </symbol>
</symbol></svg>