<svg xmlns="http://www.w3.org/2000/svg" width="269" height="269" fill="none"><defs><clipPath id="a"><path fill="#fff" fill-opacity="0" d="M0 0h269v269H0z"/></clipPath></defs><path fill="none" d="M0 0h269v269H0z"/><g clip-path="url(#a)"><path fill="#FFCD6C" d="M87.29 109.09a48.07 48.07 0 0 0-.06 21.31 7.4 7.4 0 0 0 14.7-.36 5.4 5.4 0 0 1-.03-.59 7.4 7.4 0 0 0-.2-1.7 33.52 33.52 0 0 1 .63-17.83 5.59 5.59 0 1 1 10.66 3.35 22.37 22.37 0 0 0-.42 11.9c.26 1.1.42 2.23.48 3.36.05.3.08.6.08.92a18.59 18.59 0 0 1-18.57 18.57 18.6 18.6 0 0 1-18.38-15.97 59.16 59.16 0 0 1 .22-25.45 5.59 5.59 0 0 1 10.89 2.49Zm82.46 117.65a5.59 5.59 0 0 0-1.87 11.02c17.25 2.91 23.8 6.87 25.29 8.54-1 1.08-4.99 4.31-18.57 7.3-12.4 2.73-28.48 4.23-45.28 4.23-19.23 0-37.57-2-50.32-5.46-9.59-2.62-12.67-5.14-13.53-6.07 1.5-1.67 8.04-5.63 25.29-8.55a5.59 5.59 0 1 0-1.86-11.01c-23.11 3.9-34.83 10.5-34.83 19.58 0 7.3 7.2 12.8 22 16.82 13.66 3.73 33.07 5.86 53.25 5.86 19.05 0 37.01-1.83 50.6-5.17 16.59-4.07 24.65-9.8 24.65-17.5 0-9.1-11.72-15.68-34.82-19.59Zm-21.87 2.77v.93A18.58 18.58 0 0 1 129.32 249a18.58 18.58 0 0 1-18.56-18.56v-.93a18.58 18.58 0 0 1 18.56-18.56 18.58 18.58 0 0 1 18.56 18.56Zm-11.17 0a7.4 7.4 0 0 0-14.78 0v.93a7.4 7.4 0 0 0 14.78 0v-.93Zm16.72-97.38a22.32 22.32 0 0 1-13.63 9.7l-.05.02a38.18 38.18 0 0 0-23.84 17.22 38.16 38.16 0 0 0-4.64 29.02 18.6 18.6 0 0 0 22.33 13.78 18.43 18.43 0 0 0 11.52-8.32c2.6-4.22 3.4-9.2 2.26-14.03-.11-.46.02-.8.15-1.02.12-.2.39-.54.8-.64l.1-.03a59.24 59.24 0 0 0 36.53-26.22l.33-.48a59.23 59.23 0 0 0 7.27-44.53 5.58 5.58 0 1 0-10.89 2.5 48.12 48.12 0 0 1-5.62 35.73l-.3.43a48.14 48.14 0 0 1-29.99 21.72l-.1.03a12.44 12.44 0 0 0-7.65 5.64 12.44 12.44 0 0 0-1.5 9.45c.45 1.92.13 3.9-.9 5.59a7.4 7.4 0 0 1-13.47-2.18 27.07 27.07 0 0 1 3.29-20.6 27.08 27.08 0 0 1 16.92-12.2 33.43 33.43 0 0 0 20.84-15.12l.04-.05.27-.51a33.53 33.53 0 0 0 3.83-24.83l-.07-.28a35.1 35.1 0 0 0-.54-1.97 5.59 5.59 0 0 0-10.68 3.28c.14.45.26.9.37 1.33l.05.23a22.4 22.4 0 0 1-2.79 16.9l-.24.44Zm73.58-63.07c0 9.23-9.96 16.56-29.6 21.8-16.88 4.51-39.22 7-62.91 7-23.7 0-46.03-2.49-62.9-7-19.65-5.24-29.61-12.57-29.61-21.8 0-8.4 8.27-15.24 24.6-20.36l6.21-36.2C73.74 7.07 78.05.54 93.3.3c8.49-.12 18.46 1.53 27.25 2.99 5.7.94 11.06 1.83 13.96 1.83 3.5 0 9.33-1.02 15.5-2.1 14.93-2.6 31.85-5.54 40.64.66 3 2.12 4.93 5.17 5.56 8.83l6.22 36.2c16.32 5.11 24.6 11.95 24.6 20.35Zm-11.17 0c0-.96-2.72-5.03-15.23-9.2-17 5.02-40.95 7.89-66.11 7.89-15.72 0-31.18-1.12-44.72-3.24a5.59 5.59 0 0 1 1.72-11.04 284.2 284.2 0 0 0 43 3.1c21.26 0 41.49-2.09 56.93-5.82L185.2 14.4a2.17 2.17 0 0 0-.99-1.59c-5-3.53-21.42-.67-32.28 1.22-6.95 1.21-12.96 2.26-17.42 2.26-3.81 0-9.36-.92-15.78-1.98-8.06-1.33-17.16-2.84-24.52-2.84h-.75c-2.15.04-9.2.34-9.64 2.93l-6.8 39.61a5.59 5.59 0 0 1-4 4.44C56.53 63.07 53.16 68 53.16 69.06c0 1.12 3.62 6.29 21.31 11.02 15.97 4.26 37.28 6.6 60.03 6.6s44.06-2.34 60.02-6.6c17.7-4.73 21.32-9.9 21.32-11.02Z"/></g></svg>