<svg xmlns="http://www.w3.org/2000/svg" width="274" height="274" fill="none"><defs><clipPath id="a"><path fill="#fff" fill-opacity="0" d="M0 0h274v274H0z"/></clipPath></defs><path fill="none" d="M0 0h274v274H0z"/><g clip-path="url(#a)"><path fill="#FFCD6C" fill-rule="evenodd" d="M137 31.4a19.98 19.98 0 1 0 0 39.95 19.98 19.98 0 0 0 0-39.95ZM99.9 51.38a37.1 37.1 0 1 1 74.2 0 37.1 37.1 0 0 1-74.2 0Zm47.02 60.76a60.2 60.2 0 0 0-19.84 0c-28.63 4.82-50.02 29.95-50.02 59.33 0 6.45-3.6 12.4-9.39 15.32l-29.56 14.94a8.56 8.56 0 0 1-7.72-15.29l29.54-14.93.01-.04c0-37.73 27.42-70.01 64.3-76.22a77.3 77.3 0 0 1 25.52 0c36.88 6.21 64.3 38.49 64.3 76.22l.01.04 29.54 14.93a8.56 8.56 0 1 1-7.72 15.29l-29.56-14.94a17.15 17.15 0 0 1-9.4-15.32c0-29.38-21.38-54.51-50.01-59.33Zm-33.32 63.68a8.56 8.56 0 0 1 1.71 11.98l-11.95 15.93c-.3.42-.55.74-.8 1.06a31.38 31.38 0 0 1-17.52 11.11l-.09.02L68 220.16a18.18 18.18 0 0 0-13.77 17.63 4.8 4.8 0 0 0 4.8 4.81H76.8c7.04 0 9.88-.01 12.59-.33a48.5 48.5 0 0 0 18.72-6.24c2.35-1.37 4.63-3.06 10.26-7.28l2.08-1.56 22.83-17.12a8.56 8.56 0 0 1 10.28 13.7l-10.33 7.74 14.36 5.39c7.15 2.68 10.04 3.75 12.97 4.43 1.58.37 3.18.66 4.8.87 2.98.39 6.06.4 13.7.4h25.9a4.8 4.8 0 0 0 4.81-4.8c0-8.35-5.67-15.62-13.77-17.64l-17.04-4.26-1.29-.33a31.4 31.4 0 0 1-17.03-11.84l-.05-.07-11.9-15.86a8.56 8.56 0 1 1 13.7-10.27l11.9 15.86.59.78a14.27 14.27 0 0 0 8.32 5.14l16.96 4.23a35.3 35.3 0 0 1 26.74 34.25 21.93 21.93 0 0 1-21.94 21.94h-26.5c-6.86 0-11.1 0-15.31-.55a65.66 65.66 0 0 1-6.49-1.17c-4.14-.97-8.1-2.46-14.53-4.87l-25.16-9.43c-4.34 3.25-7.21 5.36-10.26 7.13a65.64 65.64 0 0 1-25.32 8.44c-3.83.45-7.72.45-14.04.45H59.04a21.93 21.93 0 0 1-21.93-21.94 35.3 35.3 0 0 1 26.74-34.25l16.95-4.23c.63-.16.8-.2.95-.25a14.28 14.28 0 0 0 7.97-5.67l11.89-15.86a8.56 8.56 0 0 1 11.99-1.71Z"/></g></svg>