<svg xmlns="http://www.w3.org/2000/svg" width="43" height="43" fill="none"><defs><clipPath id="a"><path fill="#fff" fill-opacity="0" d="M0 0h43v43H0z"/></clipPath></defs><path fill="none" d="M0 0h43v43H0z"/><g clip-path="url(#a)"><path fill="#FFCD6C" d="M6.72 32.25a1.34 1.34 0 1 0-2.69 0h2.69Zm-2.69-7.17a1.34 1.34 0 0 0 2.69 0H4.03Zm8.51-9.4c1.73 0 2.89 0 3.75.12.83.1 1.19.3 1.42.53l1.9-1.9a4.88 4.88 0 0 0-2.96-1.3C15.57 13 14.2 13 12.55 13v2.69Zm8.51 5.82c0-1.65 0-3.02-.14-4.11a4.88 4.88 0 0 0-1.3-2.96l-1.9 1.9c.23.24.42.59.54 1.42.11.86.11 2.02.11 3.75h2.7Zm-8.5-8.51c-1.66 0-3.03 0-4.12.14a4.88 4.88 0 0 0-2.96 1.3l1.9 1.9c.24-.23.6-.42 1.42-.53.86-.12 2.02-.12 3.75-.12v-2.69ZM6.71 21.5c0-1.73 0-2.89.12-3.75.1-.83.3-1.18.53-1.42l-1.9-1.9a4.88 4.88 0 0 0-1.3 2.96c-.14 1.09-.14 2.46-.14 4.11h2.69Zm0 17.92v-7.17H4.03v7.17h2.69Zm0-14.34V21.5H4.03v3.58h2.69Z"/><path stroke="#FFCD6C" stroke-width="2" d="M12.54 39.42V28.67c0-3.38 0-5.07 1.05-6.12 1.05-1.05 2.74-1.05 6.12-1.05h3.58c3.38 0 5.07 0 6.12 1.05.84.84 1 2.1 1.04 4.32m0 12.55v-4.93M37.63 13.92c0-2.4 0-3.6-.64-4.52-.64-.92-1.77-1.34-4.02-2.19-4.4-1.65-6.6-2.47-8.14-1.4-1.54 1.07-1.54 3.42-1.54 8.11v7.58m14.34 17.92V21.5"/><path stroke="#FFCD6C" stroke-linecap="round" stroke-width="2" d="M7.17 14.33v-2.68c0-1.7 0-2.54.52-3.06.53-.53 1.37-.53 3.06-.53h3.58c1.7 0 2.54 0 3.06.53.53.52.53 1.37.53 3.06v2.68M12.54 3.58v3.59M3.58 39.42h35.84"/><path stroke="#FFCD6C" stroke-width="2" d="M17.92 26.88h.9m6.26 0H22.4"/><path stroke="#FFCD6C" stroke-linecap="round" stroke-width="2" d="M17.92 32.25h7.16"/></g></svg>