<svg xmlns="http://www.w3.org/2000/svg" width="110" height="110" fill="none"><defs><clipPath id="a"><path fill="#fff" fill-opacity="0" d="M0 0h110v110H0z"/></clipPath></defs><path fill="none" d="M0 0h110v110H0z"/><g clip-path="url(#a)"><path fill="#FFCD6C" d="M17.19 82.5a3.44 3.44 0 0 0-6.88 0h6.88ZM10.3 64.17a3.44 3.44 0 0 0 6.88 0H10.3ZM32.08 40.1c4.42 0 7.39.01 9.6.3 2.12.3 3.02.78 3.62 1.38l4.86-4.86c-2.08-2.09-4.68-2.94-7.56-3.32-2.78-.38-6.3-.37-10.52-.37v6.87ZM53.85 55c0-4.22.01-7.74-.36-10.52-.39-2.87-1.24-5.47-3.33-7.56l-4.86 4.86c.6.6 1.09 1.5 1.37 3.62.3 2.21.3 5.18.3 9.6h6.88ZM32.08 33.23c-4.22 0-7.73 0-10.51.37-2.88.38-5.48 1.23-7.57 3.32l4.87 4.86c.6-.6 1.5-1.09 3.61-1.37 2.22-.3 5.18-.3 9.6-.3v-6.88ZM17.18 55c0-4.42.01-7.39.31-9.6.29-2.12.78-3.02 1.38-3.62L14 36.92c-2.08 2.09-2.93 4.69-3.32 7.56-.37 2.78-.37 6.3-.37 10.52h6.88Zm0 45.83V82.5h-6.87v18.33h6.88Zm0-36.66V55h-6.87v9.17h6.88Z"/><path stroke="#FFCD6C" stroke-width="4" d="M32.08 100.83v-27.5c0-8.64 0-12.96 2.69-15.65C37.45 55 41.77 55 50.42 55h9.16c8.65 0 12.97 0 15.65 2.68 2.16 2.17 2.58 5.39 2.67 11.07m.02 32.08v-12.6M96.25 35.62c0-6.14 0-9.22-1.63-11.57-1.63-2.36-4.51-3.44-10.27-5.6-11.25-4.21-16.88-6.32-20.82-3.59-3.95 2.73-3.95 8.74-3.95 20.76V55m36.67 45.83V55"/><path stroke="#FFCD6C" stroke-linecap="round" stroke-width="4" d="M18.33 36.67v-6.88c0-4.32 0-6.48 1.35-7.82 1.34-1.34 3.5-1.34 7.82-1.34h9.17c4.32 0 6.48 0 7.82 1.34 1.34 1.34 1.34 3.5 1.34 7.82v6.88M32.08 18.33V9.17M100.83 100.83H9.17"/><path stroke="#FFCD6C" stroke-width="4" d="M45.83 68.75h2.3m16.04 0h-6.88"/><path stroke="#FFCD6C" stroke-linecap="round" stroke-width="4" d="M45.83 82.5h18.34"/></g></svg>