<svg xmlns="http://www.w3.org/2000/svg" width="41.33" height="26.64" fill="none"><path fill="#FFF" fill-rule="evenodd" d="M12.32 11.32h1v4h-1v-4Zm-1.83 2L.6 3.42C-.2 2.63-.2 1.4.6.6 1.4-.2 2.63-.2 3.42.6l11.32 11.32c.79.79.79 2.03 0 2.83L3.42 26.05c-.79.8-2.03.8-2.83 0-.79-.8-.79-2.04 0-2.83l9.9-9.9Z"/><path fill="#FFF" fill-rule="evenodd" d="M25.32 11.32h1v4h-1v-4Zm-1.83 2-9.9-9.9c-.79-.79-.79-2.03 0-2.83.8-.79 2.04-.79 2.83 0l11.32 11.32c.79.79.79 2.03 0 2.83L16.42 26.05c-.79.8-2.03.8-2.83 0-.79-.8-.79-2.04 0-2.83l9.9-9.9Z"/><path fill="#FFF" fill-rule="evenodd" d="M38.32 11.32h1v4h-1v-4Zm-1.83 2-9.9-9.9c-.79-.79-.79-2.03 0-2.83.8-.79 2.04-.79 2.83 0l11.32 11.32c.79.79.79 2.03 0 2.83L29.42 26.05c-.79.8-2.03.8-2.83 0-.79-.8-.79-2.04 0-2.83l9.9-9.9Z"/></svg>