<svg xmlns="http://www.w3.org/2000/svg" width="90" height="90" fill="none"><defs><clipPath id="a"><path fill="#fff" fill-opacity="0" d="M0 0h90v90H0z"/></clipPath></defs><path fill="none" d="M0 0h90v90H0z"/><g clip-path="url(#a)"><path stroke="#FFCD6C" stroke-linejoin="round" stroke-width="5.33" d="m11.35 37.58 13.72 10.98c1.83 1.46 2.74 2.19 3.76 2.7.9.47 1.86.8 2.85 1.01 1.12.23 2.3.23 4.63.23H53.7c2.34 0 3.5 0 4.63-.23.99-.2 1.95-.54 2.85-1 1.02-.52 1.93-1.25 3.76-2.71l13.72-10.98m-67.4 6.67v16.5c0 6.3 0 9.45 1.23 11.86a11.24 11.24 0 0 0 4.91 4.91c2.4 1.23 5.56 1.23 11.86 1.23h31.5c6.3 0 9.45 0 11.86-1.23a11.24 11.24 0 0 0 4.91-4.91c1.23-2.4 1.23-5.56 1.23-11.86v-16.5c0-2.76 0-4.91-.1-6.67-.14-2.25-.44-3.83-1.13-5.19a11.24 11.24 0 0 0-4.91-4.91c-2.4-1.23-5.56-1.23-11.86-1.23h-31.5c-6.3 0-9.45 0-11.86 1.23a11.24 11.24 0 0 0-4.91 4.91c-.7 1.36-1 2.94-1.13 5.2-.1 1.75-.1 3.9-.1 6.66Zm18.75-18V22.5c0-6.21 5.04-11.25 11.25-11.25h7.5C54.96 11.25 60 16.29 60 22.5v3.75"/></g></svg>