<svg xmlns="http://www.w3.org/2000/svg" width="90" height="90" fill="none"><defs><clipPath id="a"><path fill="#fff" fill-opacity="0" d="M0 0h90v90H0z"/></clipPath></defs><path fill="none" d="M0 0h90v90H0z"/><g stroke="#FFCD6C" stroke-width="6" clip-path="url(#a)"><path d="M45 43.13c1.07 0 1.78 1.27 3.2 3.83l.37.66c.4.73.6 1.09.92 1.33.32.24.71.33 1.5.5l.72.17c2.76.62 4.15.94 4.48 2 .32 1.05-.62 2.16-2.5 4.36l-.5.57c-.53.63-.8.94-.92 1.33-.12.39-.08.8 0 1.64l.08.77c.28 2.94.42 4.41-.44 5.07-.86.65-2.15.05-4.74-1.14l-.68-.3c-.73-.35-1.1-.52-1.49-.52-.4 0-.76.17-1.5.51l-.66.31c-2.6 1.2-3.9 1.79-4.75 1.14-.86-.66-.72-2.13-.44-5.07l.08-.77c.08-.83.12-1.25 0-1.64-.12-.39-.4-.7-.93-1.33l-.49-.57c-1.88-2.2-2.82-3.3-2.5-4.36.33-1.06 1.72-1.38 4.48-2l.72-.16c.79-.18 1.18-.27 1.5-.51.31-.24.51-.6.92-1.33l.37-.66c1.42-2.56 2.13-3.84 3.2-3.84Z"/><path stroke-linecap="round" d="M81.9 41.72c.67-7.17 1-10.75-.22-12.24a3.72 3.72 0 0 0-2.53-1.38c-1.79-.15-4.03 2.4-8.5 7.5-2.32 2.64-3.48 3.96-4.78 4.16-.71.11-1.44 0-2.1-.34-1.2-.6-2-2.23-3.58-5.49l-8.4-17.19c-3-6.16-4.5-9.24-6.79-9.24s-3.8 3.08-6.8 9.24l-8.39 17.2c-1.59 3.25-2.38 4.88-3.58 5.48-.66.34-1.39.45-2.1.34-1.3-.2-2.46-1.52-4.77-4.16-4.48-5.1-6.72-7.65-8.5-7.5-.97.09-1.88.58-2.54 1.38-1.23 1.49-.89 5.07-.21 12.24l.86 9.14c1.41 15.04 2.12 22.57 6.56 27.1C19.96 82.5 26.6 82.5 39.9 82.5h10.2c13.3 0 19.94 0 24.37-4.54 3.43-3.5 4.63-8.8 5.66-17.96"/></g></svg>