<svg xmlns="http://www.w3.org/2000/svg" width="90" height="90" fill="none"><defs><clipPath id="a"><path fill="#fff" fill-opacity="0" d="M0 0h90v90H0z"/></clipPath></defs><path fill="none" d="M0 0h90v90H0z"/><g clip-path="url(#a)"><path fill="#FFCD6C" d="M81.42 18.58A44.94 44.94 0 0 0 45 0 44.94 44.94 0 0 0 8.58 18.58 44.74 44.74 0 0 0 0 45a44.75 44.75 0 0 0 10.35 28.72A44.94 44.94 0 0 0 45 90a44.9 44.9 0 0 0 36.48-18.65A44.74 44.74 0 0 0 90 45c0-9.87-3.18-19-8.58-26.42Zm1.5 25H67.8a67.08 67.08 0 0 0-2.2-16.03 49.43 49.43 0 0 0 10.16-4.75 37.7 37.7 0 0 1 7.14 20.79ZM46.4 7.38c6.57.9 12.39 8.1 15.7 18.33A62.37 62.37 0 0 1 46.4 28V7.37Zm-2.8 0V28a62.36 62.36 0 0 1-15.7-2.3c3.3-10.23 9.12-17.42 15.7-18.33Zm0 23.44v12.78H25c.1-5.41.86-10.57 2.1-15.21a64.57 64.57 0 0 0 16.5 2.43Zm0 15.6v12.77c-5.85.14-11.4 1-16.48 2.48-1.26-4.66-2-9.83-2.12-15.26h18.6Zm0 15.58v20.63c-6.56-.9-12.37-8.07-15.69-18.27A62.18 62.18 0 0 1 43.6 62Zm2.8 20.63V61.98c5.58.1 10.88.9 15.71 2.27-3.31 10.25-9.13 17.46-15.7 18.37Zm0-23.45V46.4H65a64.2 64.2 0 0 1-2.1 15.15 64.5 64.5 0 0 0-16.5-2.38Zm0-15.58V30.8c5.85-.12 11.41-.97 16.5-2.43 1.24 4.64 1.98 9.8 2.1 15.2H46.4ZM74.05 20.6a46.85 46.85 0 0 1-9.24 4.27c-2.32-7.2-5.84-13.01-10.09-16.56a37.88 37.88 0 0 1 19.33 12.3ZM35.27 8.3c-4.24 3.56-7.77 9.37-10.09 16.56a46.86 46.86 0 0 1-9.23-4.26A37.9 37.9 0 0 1 35.27 8.3ZM14.23 22.8a49.61 49.61 0 0 0 10.15 4.75 67.08 67.08 0 0 0-2.2 16.04H7.09a37.71 37.71 0 0 1 7.15-20.8ZM7.1 46.4h15.1a67 67 0 0 0 2.21 16.1 49.79 49.79 0 0 0-10.13 4.75A37.67 37.67 0 0 1 7.1 46.4Zm8.93 23.07c2.79-1.7 5.88-3.13 9.19-4.27 2.32 7.17 5.84 12.95 10.08 16.5a37.88 37.88 0 0 1-19.27-12.23ZM54.7 81.69c4.26-3.56 7.8-9.39 10.12-16.62a46.68 46.68 0 0 1 9.27 4.27A38 38 0 0 1 54.7 81.7Zm21.12-14.56a49.38 49.38 0 0 0-10.2-4.75A67.21 67.21 0 0 0 67.8 46.4h15.1a37.7 37.7 0 0 1-7.08 20.73Z"/></g></svg>