<svg xmlns="http://www.w3.org/2000/svg" width="90" height="90" fill="none"><defs><clipPath id="a"><path fill="#fff" fill-opacity="0" d="M0 0h90v90H0z"/></clipPath></defs><path fill="none" d="M0 0h90v90H0z"/><g fill="#FFCD6C" clip-path="url(#a)"><path d="M59.15 24.18c-.77 0-1.52-.4-1.94-1.1A14.21 14.21 0 0 0 45 16.14a2.25 2.25 0 0 1 0-4.5 18.58 18.58 0 0 1 16.08 9.14 2.25 2.25 0 0 1-1.93 3.4ZM45 87.36c-7.8 0-14.15-6.35-14.15-14.15 0-1.24 1-2.25 2.25-2.25h9.52a2.25 2.25 0 0 1 0 4.5h-7.01a9.67 9.67 0 0 0 19.04-2.25 2.25 2.25 0 1 1 4.5 0c0 7.8-6.35 14.15-14.15 14.15Z"/><path d="M50.22 75.46h-.75a2.25 2.25 0 1 1 0-4.5h.75a2.25 2.25 0 0 1 0 4.5ZM56.9 66.73c-1.24 0-2.25-1.01-2.25-2.25 0-6.56 2.72-13.69 6.76-17.73a23.06 23.06 0 0 0 6.8-16.4c0-6.2-2.42-12.03-6.8-16.42A23.06 23.06 0 0 0 45 7.13c-6.2 0-12.03 2.42-16.4 6.8a23.06 23.06 0 0 0-6.8 16.41c0 6.2 2.4 12.03 6.8 16.41 3.57 3.58 6.11 9.59 6.64 15.48h12.61L52.3 34.5l-2.55 1.16c-.76.34-1.64.24-2.3-.26L45 33.55l-2.44 1.86c-.66.5-1.54.6-2.3.26l-2.54-1.16 3.5 21.92a2.25 2.25 0 0 1-4.44.7L32.6 31.09a2.25 2.25 0 0 1 3.15-2.4l5.14 2.34 2.74-2.08c.8-.62 1.92-.62 2.72 0l2.74 2.08 5.14-2.34a2.25 2.25 0 0 1 3.15 2.4L52 64.83a2.25 2.25 0 0 1-2.22 1.9H33.1c-1.25 0-2.25-1.01-2.25-2.25 0-5.28-2.29-11.4-5.44-14.55a27.52 27.52 0 0 1-8.12-19.59c0-7.4 2.89-14.36 8.12-19.59A27.52 27.52 0 0 1 45 2.64c7.4 0 14.36 2.88 19.6 8.11a27.52 27.52 0 0 1 8.1 19.6c0 7.4-2.87 14.35-8.1 19.58-3.16 3.15-5.45 9.27-5.45 14.55 0 1.24-1 2.25-2.25 2.25Z"/></g></svg>