<svg xmlns="http://www.w3.org/2000/svg" width="339.22" height="199.88" fill="none" viewBox="0 0 339.23 199.88"><path fill="#CCEBFF" fill-opacity=".6" d="m169.61 2 114.53 66.67 29.64.06.03 17.52 23.42 13.69-23.25 13.58-.19 16.93-28.99.11-115.19 67.32L54.4 130.55l-23.41-.1-.17-13.68L2 99.94l28.74-16.8.17-14.38 24.66-.12L169.6 2Z"/><path stroke="#071015" stroke-linejoin="round" stroke-width="4" d="m284.14 68.67 29.64.06.03 17.52 23.42 13.69-23.25 13.58-.19 16.93-28.99.11-115.19 67.32L54.4 130.55l-23.41-.1-.17-13.68L2 99.94l28.74-16.8.17-14.38 24.66-.12L169.6 2l114.53 66.67Z"/><path fill="#071015" d="m70.07 139.44.06.01 7.5-1.74-.12-11.2 14.84-.22v-4.14l5.8-.05-.02-7.74 4.45-.06-.23-31.73 4.97.01-.15-6.26 8.4-.15.19 6.2 4.54.03.42 30.13 7.19-.02.74 35.02 3.46-.13.1 6.98 3.02.06v5.1l4.56-.12-.06 8.94h4.56V94.83l8.72.2.45-45.11 6.57-.08-.16-27.08 9.87-3.97 9.95 1.11.12 30.05 6.52.2-.2 43.86 5.39-.09-.88 58.74 4.78.16v-4.4l8.33-.28.8-19.1 13.53-6.45 14.58.05-.23 20.64 5.2.04.72-44.35 5.04.04.12-5.43 18.91.23.09 5.53 5.14.35-.54 41.41-97.5 56.83-99.54-58.49Z"/><path stroke="#252E36" stroke-linejoin="round" stroke-opacity=".9" stroke-width=".61" d="m70.13 139.45 7.5-1.74-.12-11.2 14.84-.22v-4.14l5.8-.05-.02-7.74 4.45-.06-.23-31.73 4.97.01-.15-6.26 8.4-.15.19 6.2 4.54.03.42 30.13 7.19-.02.74 35.02 3.46-.13.1 6.98 3.02.06v5.1l4.56-.12-.06 8.94h4.56V94.83l8.72.2.45-45.11 6.57-.08-.16-27.08 9.87-3.97 9.95 1.11.12 30.05 6.52.2-.2 43.86 5.39-.09-.88 58.74 4.78.16v-4.4l8.33-.28.8-19.1 13.53-6.45 14.58.05-.23 20.64 5.2.04.72-44.35 5.04.04.12-5.43 18.91.23.09 5.53 5.14.35-.54 41.41-97.5 56.83-99.54-58.49.06.01Z"/><path fill="#FFCD6C" fill-opacity=".8" d="m159.85 22.74 9.88-3.9-.3 31-7.53.16-1.39 1.65-.04 11.51-1.19 1.38-.49 35.22-1.11 2.24-.11 17.06 5.61.02-.65 38.54 2.28.1.01 3.96-2.34-.01-.16 8.51-6.06-.03-1.44 4.41-8.66-.06L145 172l-.74-3.68.06-73.44 8.66.16.58-45 6.44-.13-.14-27.17Z"/><path stroke="#30302E" stroke-linejoin="round" stroke-width=".61" d="m169.73 18.83-.3 31-7.53.17-1.39 1.65-.04 11.51-1.19 1.38-.49 35.22-1.11 2.24-.11 17.06 5.61.02-.65 38.54 2.28.1.01 3.96-2.34-.01-.16 8.51-6.06-.03-1.44 4.41-8.66-.06L145 172l-.74-3.68.06-73.44 8.66.16.58-45 6.44-.13-.14-27.17 9.88-3.9Z"/><path fill="#FFCD6C" fill-opacity=".8" d="m204.52 129 13.55-6.31-4.17 4.1-.02 3.6 1.5.53-.02 10.08-2.53 1.05-2.03-.01-.8 1.43.06 7h-1.19l-.01 1.97-3.2-.04.04-5.61-1.87-.02.69-17.76Z"/><path stroke="#2B1202" stroke-linejoin="round" stroke-width=".61" d="m218.07 122.69-4.17 4.1-.02 3.6 1.5.53-.02 10.08-2.53 1.05-2.03-.01-.8 1.43.06 7h-1.19l-.01 1.97-3.2-.04.04-5.61-1.87-.02.69-17.76 13.55-6.32Z"/><path fill="#FFCD6C" fill-opacity=".8" d="m238.37 99 4.96.05-.08-5.46 9.31.08-.97 1.53-.1 3.14-.12 31.27-.17 20.9-13.93 8.22.35-15.37.75-44.36Z"/><path stroke="#2B1202" stroke-linejoin="round" stroke-width=".61" d="m243.33 99.05-.08-5.46 9.31.08-.97 1.53-.1 3.14-.12 31.27-.17 20.9-13.93 8.22.35-15.37.75-44.36 4.96.05Z"/><path fill="#FFCD6C" fill-opacity=".8" d="M102.35 82.57h4.94l-.12-6.25 4.11-.06-.02 25.08-.36 13.77-7.29 5.73h-5.45l-.03-6.49 4.42-.03-.2-31.75Z"/><path stroke="#2B1202" stroke-linejoin="round" stroke-width=".61" d="m107.29 82.57-.12-6.25 4.11-.06-.02 25.08-.36 13.77-7.29 5.73h-5.45l-.03-6.49 4.42-.03-.2-31.75h4.94Z"/><path fill="#FFCD6C" fill-opacity=".8" d="m69.93 139.54 7.68-1.83-.1-11.2 14.84-.14.1 20.25 2.16.01.03 5.43-2.54.04-3.73-2.33-9.34-5.34-9.07-4.86-.03-.03Z"/><path stroke="#2B1202" stroke-linejoin="round" stroke-width=".61" d="m77.61 137.71-.1-11.2 14.84-.14.1 20.25 2.16.01.03 5.43-2.54.04-3.73-2.33-9.34-5.34-9.07-4.86-.03-.03 7.68-1.83Z"/><path fill="#FFCD6C" fill-opacity=".8" d="m109.19 162.83 6 .89.07-4.78 3.85-.07.17 9.7-9.94-5.95-.16.2Z"/><path stroke="#2B1202" stroke-linejoin="round" stroke-width=".61" d="m115.18 163.72.08-4.78 3.85-.07.17 9.7-9.94-5.95-.16.2 6 .9Z"/><path fill="#CCEBFF" fill-opacity=".6" d="M30.93 68.67h282.88v61.8H30.94v-61.8Z"/><path stroke="#071015" stroke-linejoin="round" stroke-width="4" d="M313.81 68.67v61.8H30.94v-61.8h282.88Z"/><path fill="#071015" d="M62.44 110.38c-.5.26-1.02.5-1.56.71a13.86 13.86 0 0 1-3.64.92c-.68.1-1.42.14-2.21.14-1.28 0-2.45-.16-3.49-.45-1.05-.3-1.98-.71-2.8-1.22a9.76 9.76 0 0 1-2.12-1.79 10.64 10.64 0 0 1-2.35-4.42 9.26 9.26 0 0 1-.29-2.22 11.12 11.12 0 0 1 1.47-5.51 10.05 10.05 0 0 1 3.95-3.78c.83-.44 1.73-.79 2.71-1.03a12.83 12.83 0 0 1 4.69-.27c.54.06 1.09.16 1.66.3a22.74 22.74 0 0 1 3.76 1.27v3.12c-.64-.37-1.25-.68-1.84-.95-.6-.27-1.17-.48-1.74-.66a11.47 11.47 0 0 0-3.47-.5c-1.17 0-2.25.19-3.25.58a8 8 0 0 0-2.59 1.62c-.72.68-1.3 1.5-1.7 2.45a7.71 7.71 0 0 0-.62 3.1c0 1.13.2 2.17.6 3.11a7 7 0 0 0 1.7 2.43c.72.68 1.6 1.2 2.61 1.58 1.02.38 2.14.57 3.37.57 1.17 0 2.36-.2 3.57-.58 1.21-.39 2.4-.96 3.58-1.71v3.19Z"/><path stroke="#FFCD6C" stroke-linejoin="round" stroke-width=".5" d="M60.88 111.1a13.86 13.86 0 0 1-3.64.92c-.68.08-1.42.13-2.21.13-1.28 0-2.45-.16-3.49-.45-1.05-.3-1.98-.71-2.8-1.22a9.76 9.76 0 0 1-2.12-1.79 10.64 10.64 0 0 1-2.35-4.42 9.26 9.26 0 0 1-.29-2.22 11.12 11.12 0 0 1 1.47-5.51 10.05 10.05 0 0 1 3.95-3.78c.83-.44 1.73-.79 2.71-1.03a12.83 12.83 0 0 1 4.69-.27c.54.06 1.09.16 1.66.3a22.74 22.74 0 0 1 3.76 1.27v3.12c-.64-.37-1.25-.68-1.84-.95-.6-.27-1.17-.48-1.74-.66a11.47 11.47 0 0 0-3.47-.5c-1.17 0-2.25.19-3.25.58a8 8 0 0 0-2.59 1.62c-.72.68-1.3 1.5-1.7 2.45a7.71 7.71 0 0 0-.62 3.1c0 1.13.2 2.17.6 3.11a7 7 0 0 0 1.7 2.43c.72.68 1.6 1.2 2.61 1.58 1.02.38 2.14.57 3.37.57 1.17 0 2.36-.2 3.57-.58 1.21-.39 2.4-.96 3.58-1.71v3.19c-.5.26-1.02.5-1.56.71Z"/><path fill="#071015" d="M87.2 91.63v2.6h-7.07v17.65H77.2V94.24H70.1v-2.61h17.1Z"/><path stroke="#FFCD6C" stroke-linejoin="round" stroke-width=".5" d="M87.2 94.24h-7.07v17.64H77.2V94.24H70.1v-2.61h17.1v2.6Z"/><path fill="#071015" d="M95.63 91.63h6.4c1.11 0 2.08.15 2.9.45.82.3 1.5.72 2.03 1.25a5 5 0 0 1 1.19 1.86 6.6 6.6 0 0 1-.03 4.5c-.27.68-.69 1.28-1.26 1.79-.56.5-1.28.9-2.14 1.2-.87.3-1.9.44-3.09.44h-3.06v8.76h-2.94V91.63Zm2.94 2.6v6.29h3.33a4.9 4.9 0 0 0 1.48-.21c.45-.14.83-.35 1.14-.63.31-.27.55-.6.73-1a3.76 3.76 0 0 0 .09-2.45c-.12-.37-.31-.7-.58-1-.27-.3-.62-.53-1.07-.72-.44-.18-1-.27-1.66-.27h-3.46Z"/><path stroke="#FFCD6C" stroke-linejoin="round" stroke-width=".5" d="M102.03 91.63c1.11 0 2.08.15 2.9.45.82.3 1.5.72 2.03 1.25a5 5 0 0 1 1.19 1.86 6.6 6.6 0 0 1-.03 4.5c-.27.68-.69 1.28-1.26 1.79-.56.5-1.28.9-2.14 1.2-.87.3-1.9.44-3.09.44h-3.06v8.76h-2.94V91.63h6.4Zm-3.46 8.89h3.33a4.9 4.9 0 0 0 1.48-.21c.45-.14.83-.35 1.14-.63.31-.27.55-.6.73-1a3.76 3.76 0 0 0 .09-2.45c-.12-.37-.31-.7-.58-1-.27-.3-.62-.53-1.07-.72-.44-.18-1-.27-1.66-.27h-3.46v6.28Z"/><path fill="#071015" d="M115.99 101.76a10.3 10.3 0 0 1 3-7.3 10.5 10.5 0 0 1 3.47-2.26c1.35-.56 2.86-.83 4.52-.83 1.68 0 3.2.27 4.56.83a9.87 9.87 0 0 1 5.66 5.56 10.51 10.51 0 0 1 .02 7.92 9.94 9.94 0 0 1-5.65 5.6c-1.38.58-2.92.87-4.65.87-1.12 0-2.16-.13-3.14-.39a10.14 10.14 0 0 1-7.8-10Zm3.03 0a7.46 7.46 0 0 0 4.78 7.14 8.5 8.5 0 0 0 3.17.58c1.15 0 2.2-.2 3.18-.58a7.54 7.54 0 0 0 4.2-4.07c.4-.94.6-1.97.6-3.07 0-1.12-.2-2.15-.6-3.1a7.37 7.37 0 0 0-4.2-4.05 8.55 8.55 0 0 0-3.18-.58c-1.14 0-2.2.2-3.17.58a7.39 7.39 0 0 0-4.18 4.05c-.4.95-.6 1.98-.6 3.1Z"/><path stroke="#FFCD6C" stroke-linejoin="round" stroke-width=".5" d="M116.77 97.77a10.1 10.1 0 0 1 5.69-5.57c1.35-.56 2.86-.83 4.52-.83 1.68 0 3.2.27 4.56.83a9.87 9.87 0 0 1 5.66 5.56 10.51 10.51 0 0 1 .02 7.92 9.94 9.94 0 0 1-5.65 5.6c-1.38.58-2.92.87-4.65.87-1.12 0-2.16-.13-3.14-.39a10.14 10.14 0 0 1-7.8-10c0-1.4.27-2.73.8-3.99Zm2.85 7.06a7.47 7.47 0 0 0 4.18 4.07 8.5 8.5 0 0 0 3.17.58c1.15 0 2.2-.2 3.18-.58a7.54 7.54 0 0 0 4.2-4.07c.4-.94.6-1.97.6-3.07 0-1.12-.2-2.15-.6-3.1a7.37 7.37 0 0 0-4.2-4.05 8.55 8.55 0 0 0-3.18-.58c-1.14 0-2.2.2-3.17.58a7.39 7.39 0 0 0-4.18 4.05c-.4.95-.6 1.98-.6 3.1 0 1.1.2 2.13.6 3.07Z"/><path fill="#071015" d="m161.8 97-12.99 15.15h-1.4V91.63h2.93v15.41l12.96-15.41h1.44v20.25h-2.93V97.01Zm-8.04-10.74c.3 1.23 1.06 1.84 2.3 1.84.6 0 1.06-.14 1.4-.44.34-.3.59-.76.74-1.4h2.04a4.89 4.89 0 0 1-1.41 2.85c-.72.65-1.65.98-2.8.98s-2.1-.33-2.83-.98a4.8 4.8 0 0 1-1.44-2.85h2Z"/><path stroke="#FFCD6C" stroke-linejoin="round" stroke-width=".5" d="M148.81 112.15h-1.4V91.63h2.93v15.41l12.96-15.41h1.44v20.25h-2.93V97.01l-13 15.14Zm7.25-24.05c.6 0 1.06-.14 1.4-.44.34-.3.59-.76.74-1.4h2.04a4.89 4.89 0 0 1-1.41 2.85c-.72.65-1.65.98-2.8.98s-2.1-.33-2.83-.98a4.8 4.8 0 0 1-1.44-2.85h2c.3 1.23 1.06 1.84 2.3 1.84Z"/><path fill="#071015" d="M233.06 107.08v3.19a15.42 15.42 0 0 1-7.44 1.74c-2.29 0-4.23-.45-5.82-1.36-1.59-.91-2.85-2.16-3.78-3.76-.93-1.6-1.39-3.32-1.39-5.17a9.84 9.84 0 0 1 3.19-7.44 11 11 0 0 1 7.86-3.02c2.14 0 4.53.56 7.16 1.67v3.11a14.21 14.21 0 0 0-7.02-2.03c-2.34 0-4.29.74-5.83 2.2a7.26 7.26 0 0 0-2.33 5.5c0 2.23.77 4.06 2.29 5.49a8.2 8.2 0 0 0 5.84 2.14c2.48 0 4.9-.75 7.27-2.26Z"/><path stroke="#FFCD6C" stroke-linejoin="round" stroke-width=".5" d="M233.06 110.27a15.42 15.42 0 0 1-7.44 1.74c-2.29 0-4.23-.45-5.82-1.36-1.59-.91-2.85-2.16-3.78-3.76-.93-1.6-1.39-3.32-1.39-5.17a9.84 9.84 0 0 1 3.19-7.44 11 11 0 0 1 7.86-3.02c2.14 0 4.53.56 7.16 1.67v3.11a14.21 14.21 0 0 0-7.02-2.03c-2.34 0-4.29.74-5.83 2.2a7.26 7.26 0 0 0-2.33 5.5c0 2.23.77 4.06 2.29 5.49a8.2 8.2 0 0 0 5.84 2.14c2.48 0 4.9-.75 7.27-2.26v3.19Z"/><path fill="#071015" d="M242.5 91.52h2.94v20.26h-2.94V91.52Z"/><path stroke="#FFCD6C" stroke-linejoin="round" stroke-width=".5" d="M245.44 91.52v20.26h-2.94V91.52h2.94Z"/><path fill="#071015" d="M254.05 91.5h17.1v2.57H264v17.7h-2.95v-17.7h-7.01V91.5Z"/><path stroke="#FFCD6C" stroke-linejoin="round" stroke-width=".5" d="M271.14 91.5v2.57h-7.13v17.7h-2.95v-17.7h-7.01V91.5h17.1Z"/><path fill="#071015" d="M292.04 91.52h3.55l-7.56 9.54v10.72h-3v-10.72l-7.56-9.54H281l5.48 6.99 5.55-6.99Z"/><path stroke="#FFCD6C" stroke-linejoin="round" stroke-width=".5" d="m295.59 91.52-7.56 9.54v10.72h-3v-10.72l-7.56-9.54H281l5.48 6.99 5.55-6.99h3.55Z"/><path fill="#071015" d="M180.2 101.27h19.47v1.1H180.2v-1.1Z"/><path stroke="#071015" stroke-linejoin="round" stroke-width="2.85" d="M199.67 101.27v1.1H180.2v-1.1h19.46Z"/></svg>