<svg xmlns="http://www.w3.org/2000/svg" width="90" height="90" fill="none"><defs><clipPath id="a"><path fill="#fff" fill-opacity="0" d="M0 0h90v90H0z"/></clipPath></defs><path fill="none" d="M0 0h90v90H0z"/><g clip-path="url(#a)"><path fill="#FFCD6C" fill-rule="evenodd" d="M44.8 4.69h.4c3.36 0 6.17 0 8.4.3 2.36.31 4.48 1.01 6.2 2.72 1.7 1.7 2.4 3.83 2.71 6.19.22 1.64.28 3.6.3 5.88 2.43.08 4.6.22 6.52.48 4.4.6 7.96 1.84 10.77 4.64 2.8 2.81 4.05 6.37 4.64 10.77.57 4.27.57 9.73.57 16.62v.42c0 6.9 0 12.35-.57 16.62-.6 4.4-1.84 7.96-4.64 10.77-2.81 2.8-6.37 4.05-10.77 4.64-4.27.57-9.73.57-16.62.57H37.3c-6.9 0-12.35 0-16.62-.57-4.4-.6-7.96-1.84-10.77-4.64-2.8-2.81-4.05-6.37-4.64-10.77-.57-4.27-.57-9.73-.57-16.62v-.42c0-6.9 0-12.35.57-16.62.6-4.4 1.84-7.96 4.64-10.77 2.81-2.8 6.37-4.05 10.77-4.64 1.92-.26 4.1-.4 6.52-.48.02-2.27.08-4.24.3-5.88.31-2.36 1.01-4.48 2.72-6.2C31.9 6 34.04 5.3 36.4 5c2.23-.3 5.04-.3 8.4-.3Zm-11.98 15h24.36a42.34 42.34 0 0 0-.24-5.04c-.23-1.74-.64-2.48-1.13-2.96-.48-.5-1.23-.9-2.96-1.13-1.8-.24-4.23-.25-7.85-.25-3.62 0-6.04 0-7.85.25-1.73.23-2.48.64-2.96 1.13-.5.48-.9 1.22-1.13 2.96a42.1 42.1 0 0 0-.24 5.04Zm-11.4 6.15c-3.78.5-5.95 1.46-7.54 3.04-1.59 1.59-2.54 3.76-3.04 7.54-.52 3.85-.53 8.93-.53 16.08 0 7.15 0 12.23.53 16.08.5 3.78 1.45 5.95 3.04 7.54 1.59 1.58 3.76 2.54 7.54 3.04 3.85.52 8.93.53 16.08.53h15c7.15 0 12.23 0 16.08-.53 3.78-.5 5.95-1.46 7.54-3.04 1.59-1.59 2.54-3.76 3.04-7.54.52-3.85.53-8.93.53-16.08 0-7.15 0-12.23-.53-16.08-.5-3.78-1.45-5.95-3.04-7.54-1.59-1.58-3.76-2.54-7.54-3.04-3.85-.52-8.93-.53-16.08-.53h-15c-7.15 0-12.23 0-16.08.53ZM45 34.69a2.81 2.81 0 0 1 2.81 2.81v.04c4.09 1.03 7.5 4.25 7.5 8.71a2.81 2.81 0 1 1-5.62 0c0-1.44-1.6-3.44-4.69-3.44-3.1 0-4.69 2-4.69 3.44s1.6 3.44 4.69 3.44c5.2 0 10.31 3.6 10.31 9.06 0 4.46-3.41 7.68-7.5 8.71v.04a2.81 2.81 0 1 1-5.62 0v-.04c-4.09-1.03-7.5-4.25-7.5-8.71a2.81 2.81 0 1 1 5.62 0c0 1.44 1.6 3.44 4.69 3.44 3.1 0 4.69-2 4.69-3.44s-1.6-3.44-4.69-3.44c-5.2 0-10.31-3.6-10.31-9.06 0-4.46 3.41-7.68 7.5-8.71v-.04A2.81 2.81 0 0 1 45 34.69Z"/><path stroke="#FFCD6C" stroke-width="2.67" d="M45.2 4.69c3.36 0 6.17 0 8.4.3 2.36.31 4.48 1.01 6.2 2.72 1.7 1.7 2.4 3.83 2.71 6.19.22 1.64.28 3.6.3 5.88 2.43.08 4.6.22 6.52.48 4.4.6 7.96 1.84 10.77 4.64 2.8 2.81 4.05 6.37 4.64 10.77.57 4.27.57 9.73.57 16.62v.42c0 6.9 0 12.35-.57 16.62-.6 4.4-1.84 7.96-4.64 10.77-2.81 2.8-6.37 4.05-10.77 4.64-4.27.57-9.73.57-16.62.57H37.3c-6.9 0-12.35 0-16.62-.57-4.4-.6-7.96-1.84-10.77-4.64-2.8-2.81-4.05-6.37-4.64-10.77-.57-4.27-.57-9.73-.57-16.62v-.42c0-6.9 0-12.35.57-16.62.6-4.4 1.84-7.96 4.64-10.77 2.81-2.8 6.37-4.05 10.77-4.64 1.92-.26 4.1-.4 6.52-.48.02-2.27.08-4.24.3-5.88.31-2.36 1.01-4.48 2.72-6.2C31.9 6 34.04 5.3 36.4 5c2.23-.3 5.04-.3 8.4-.3h.4Zm-7.91 15h19.89a42.34 42.34 0 0 0-.24-5.04c-.23-1.74-.64-2.48-1.13-2.96-.48-.5-1.23-.9-2.96-1.13-1.8-.24-4.23-.25-7.85-.25-3.62 0-6.04 0-7.85.25-1.73.23-2.48.64-2.96 1.13-.5.48-.9 1.22-1.13 2.96a42.1 42.1 0 0 0-.24 5.04h4.47Zm-23.4 9.2c-1.6 1.58-2.55 3.75-3.05 7.53-.52 3.85-.53 8.93-.53 16.08 0 7.15 0 12.23.53 16.08.5 3.78 1.45 5.95 3.04 7.54 1.59 1.58 3.76 2.54 7.54 3.04 3.85.52 8.93.53 16.08.53h15c7.15 0 12.23 0 16.08-.53 3.78-.5 5.95-1.46 7.54-3.04 1.59-1.59 2.54-3.76 3.04-7.54.52-3.85.53-8.93.53-16.08 0-7.15 0-12.23-.53-16.08-.5-3.78-1.45-5.95-3.04-7.54-1.59-1.58-3.76-2.54-7.54-3.04-3.85-.52-8.93-.53-16.08-.53h-15c-7.15 0-12.23 0-16.08.53-3.78.5-5.95 1.46-7.54 3.04ZM47.8 37.5v.04c4.09 1.03 7.5 4.25 7.5 8.71a2.81 2.81 0 1 1-5.62 0c0-1.44-1.6-3.44-4.69-3.44-3.1 0-4.69 2-4.69 3.44s1.6 3.44 4.69 3.44c5.2 0 10.31 3.6 10.31 9.06 0 4.46-3.41 7.68-7.5 8.71v.04a2.81 2.81 0 1 1-5.62 0v-.04c-4.09-1.03-7.5-4.25-7.5-8.71a2.81 2.81 0 1 1 5.62 0c0 1.44 1.6 3.44 4.69 3.44 3.1 0 4.69-2 4.69-3.44s-1.6-3.44-4.69-3.44c-5.2 0-10.31-3.6-10.31-9.06 0-4.46 3.41-7.68 7.5-8.71v-.04a2.81 2.81 0 1 1 5.62 0Z"/></g></svg>