<svg xmlns="http://www.w3.org/2000/svg" width="251" height="251" fill="none"><defs><clipPath id="b"><path fill="#fff" fill-opacity="0" d="M-42-42h335v335H-42z"/></clipPath><clipPath id="a"><path fill="#fff" fill-opacity="0" d="M0 0h251v251H0z"/></clipPath></defs><path fill="none" d="M0 0h251v251H0z"/><g clip-path="url(#a)"><g clip-path="url(#b)"><path fill="#2962FF" d="M52.22-.13h146.56a52.35 52.35 0 0 1 52.34 52.35v146.56a52.35 52.35 0 0 1-52.34 52.34H52.22A52.34 52.34 0 0 1-.12 198.78V52.22A52.34 52.34 0 0 1 52.22-.12Z"/><path fill="#FFF" d="M108.05 140.06H90.09L113 109.73a1.53 1.53 0 0 0-1.22-2.44H78.63a5.31 5.31 0 0 0-5.3 5.3c0 2.9 2.39 5.3 5.3 5.3h14.9l-23 30.36a1.5 1.5 0 0 0 .27 2.13c.28.22.61.34.95.3h36.27a5.3 5.3 0 0 0 5.02-5.57 5.29 5.29 0 0 0-5-5.05Zm115.89-32.77a5.31 5.31 0 0 0-5.3 5.3v17.79l-28.65-22.73a1.52 1.52 0 0 0-2.47 1.2v36.54a5.3 5.3 0 0 0 10.6 0V127.6l28.64 22.76a1.54 1.54 0 0 0 2.5-1.2V112.6a5.31 5.31 0 0 0-5.32-5.3Zm-75.8 33.77c-12.12 0-21.17-6.38-21.17-12.1 0-5.71 9.08-12.1 21.18-12.1 12.13 0 21.17 6.39 21.17 12.1 0 5.72-9.02 12.1-21.17 12.1Zm0-34.8c-17.53 0-31.77 10.15-31.77 22.7 0 12.55 14.24 22.7 31.78 22.7s31.77-10.15 31.77-22.7c0-12.55-14.23-22.7-31.77-22.7ZM43.83 141.09a12.12 12.12 0 1 1-.02-24.23 12.12 12.12 0 0 1 .02 24.23Zm0-34.83a22.74 22.74 0 0 0-22.73 22.7 22.74 22.74 0 0 0 22.7 22.73A22.74 22.74 0 0 0 66.53 129a22.76 22.76 0 0 0-22.7-22.73Z"/></g></g></svg>