<svg xmlns="http://www.w3.org/2000/svg" width="25" height="25" fill="none"><defs><clipPath id="a"><path fill="#fff" fill-opacity="0" d="M0 0h25v25H0z"/></clipPath></defs><path fill="none" d="M0 0h25v25H0z"/><g clip-path="url(#a)"><path fill="#FFCD6C" d="M3.9 18.75a.78.78 0 0 0-1.56 0h1.57Zm-1.56-4.17a.78.78 0 0 0 1.57 0H2.34ZM7.3 9.11c1 0 1.68 0 2.18.07.48.07.69.18.83.32l1.1-1.1a2.84 2.84 0 0 0-1.72-.76c-.63-.09-1.43-.09-2.39-.09v1.56Zm4.95 3.39c0-.96 0-1.76-.08-2.39a2.84 2.84 0 0 0-.76-1.72l-1.1 1.1c.13.14.24.35.3.83.08.5.08 1.18.08 2.18h1.56ZM7.29 7.55c-.96 0-1.76 0-2.39.09-.65.08-1.24.28-1.72.75l1.1 1.1c.14-.13.35-.24.83-.3.5-.07 1.18-.08 2.18-.08V7.55ZM3.91 12.5c0-1 0-1.68.07-2.18.06-.48.17-.69.3-.82l-1.1-1.1a2.84 2.84 0 0 0-.75 1.71c-.09.63-.09 1.43-.09 2.39h1.57Zm0 10.42v-4.17H2.34v4.17h1.57Zm0-8.34V12.5H2.34v2.08h1.57Z"/><path stroke="#FFCD6C" d="M7.3 22.92v-6.25c0-1.97 0-2.95.6-3.56.61-.61 1.6-.61 3.56-.61h2.08c1.97 0 2.95 0 3.56.61.49.5.59 1.22.6 2.52m0 7.29v-2.87M21.88 8.1c0-1.4 0-2.1-.38-2.63-.37-.54-1.02-.79-2.33-1.28-2.56-.95-3.84-1.43-4.73-.81-.9.62-.9 1.98-.9 4.72v4.4m8.34 10.42V12.5"/><path stroke="#FFCD6C" stroke-linecap="round" d="M4.17 8.33V6.77c0-.98 0-1.47.3-1.78.3-.3.8-.3 1.78-.3h2.08c.99 0 1.48 0 1.78.3.3.3.3.8.3 1.78v1.56M7.3 2.08v2.09M2.08 22.92h20.84"/><path stroke="#FFCD6C" d="M10.42 15.63h.52m3.64 0h-1.56"/><path stroke="#FFCD6C" stroke-linecap="round" d="M10.42 18.75h4.16"/></g></svg>