<svg xmlns="http://www.w3.org/2000/svg" width="251" height="251" fill="none"><defs><linearGradient id="b" x1="0" x2="251" y1="126" y2="126" gradientUnits="userSpaceOnUse"><stop stop-color="#BB11A4"/><stop offset=".51" stop-color="#8E1190"/><stop offset="1" stop-color="#581179"/></linearGradient><clipPath id="a"><path fill="#fff" fill-opacity="0" d="M0 0h251v251H0z"/></clipPath></defs><path fill="none" d="M0 0h251v251H0z"/><g clip-path="url(#a)"><path fill="url(#b)" d="M0 0h251v251H0z"/><path stroke="#FFF" stroke-linecap="round" stroke-linejoin="round" stroke-width="12" d="m28.76 82.82 23.03 84.86L76.47 82.8l28.75 85.32 23.13-85.3m85.95 80.05c-5.33 4.85-11.6 7.33-19.33 7.33h-38.78V80.8h35.95c7.42 0 13.7 2.47 18.81 7.11 5.23 4.74 7.74 10.62 7.74 17.64 0 7.84-3.14 13.81-9.2 18.25 7.94 4.12 12.75 11.55 12.75 20.83 0 7.32-2.61 13.4-7.94 18.25Z"/><path stroke="#FFF" stroke-linecap="round" stroke-linejoin="round" stroke-width="9" d="M210.25 123.51h-51.41"/></g></svg>