<svg xmlns="http://www.w3.org/2000/svg" width="251" height="264" fill="none"><defs><clipPath id="a"><path fill="#fff" fill-opacity="0" d="M0 0h251v264H0z"/></clipPath></defs><path fill="none" d="M0 0h251v264H0z"/><g clip-path="url(#a)"><path fill="#FFCD6C" d="M2 8h247v247H2z"/><path stroke="#FFCD6C" stroke-width="4" d="M2 8h247v247H2z"/><path fill="#071015" d="M73.9 71.22-18.11 198.1l24.4 29.33 68.33-95.33-6.98 52.06 38.35 13.94 46.71-78.47c-2.09 14.67-5.58 48.4 25.1 58.67 48.1 15.4 89.94-75.53 109.46-121.74l-27.89-15.4c-21.61 47.67-55.08 100.47-68.32 96.8-13.25-3.66-1.4-48.4 6.27-77v-.73l-42.53-15.4-50.9 87.27 6.98-47.67-36.95-13.2Z"/><path stroke="#071015" stroke-linejoin="round" stroke-width="6.25" d="m-18.12 198.09 24.4 29.33 68.33-95.33-6.98 52.06 38.35 13.94 46.71-78.47c-2.09 14.67-5.58 48.4 25.1 58.67 48.1 15.4 89.94-75.53 109.46-121.74l-27.89-15.4c-21.61 47.67-55.08 100.47-68.32 96.8-13.25-3.66-1.4-48.4 6.27-77v-.73l-42.53-15.4-50.9 87.27 6.98-47.67-36.95-13.2-92.03 126.87Z"/></g></svg>